<svg width="19" height="19" viewBox="0 0 19 19" fill="none" xmlns="http://www.w3.org/2000/svg">
<path d="M9.625 17.1875C9.30156 17.1875 9.03906 16.925 9.03906 16.6016V2.14844C9.03906 1.825 9.30156 1.5625 9.625 1.5625C9.94844 1.5625 10.2109 1.825 10.2109 2.14844V16.6016C10.2109 16.925 9.94844 17.1875 9.625 17.1875ZM13.6406 17.1875C13.3164 17.1875 13.0547 16.925 13.0547 16.6016V6.16406C13.0547 5.83984 13.3164 5.57812 13.6406 5.57812C13.9648 5.57812 14.2266 5.83984 14.2266 6.16406V16.6016C14.2266 16.925 13.9633 17.1875 13.6406 17.1875ZM5.60938 17.1875C5.28672 17.1875 5.02344 16.925 5.02344 16.6016V8.57266C5.02344 8.24922 5.28672 7.98672 5.60938 7.98672C5.93203 7.98672 6.19531 8.24922 6.19531 8.57266V16.6016C6.19531 16.925 5.93359 17.1875 5.60938 17.1875Z" fill="#536471"/>
</svg>
