<svg width="19" height="19" viewBox="0 0 19 19" fill="none" xmlns="http://www.w3.org/2000/svg">
<g clip-path="url(#clip0_4_103)">
<path d="M10.9735 1.75156L7.73283 1.74374H7.73126C4.31408 1.74374 1.63751 4.42109 1.63751 7.83906C1.63751 11.0406 4.12658 13.4687 7.46954 13.5969V16.5875C7.46954 16.6719 7.50392 16.8109 7.56329 16.9023C7.67423 17.0781 7.86329 17.1734 8.05704 17.1734C8.16486 17.1734 8.27345 17.1437 8.37111 17.0812C8.57736 16.95 13.4281 13.8469 14.6899 12.7797C16.1758 11.5219 17.0649 9.67812 17.0672 7.84843V7.83515C17.0625 4.42343 14.3875 1.75156 10.9735 1.75078V1.75156ZM13.932 11.8859C13.0461 12.6359 10.1336 14.5461 8.64142 15.5133V13.0234C8.64142 12.7 8.3797 12.4375 8.05548 12.4375H7.74611C4.88673 12.4375 2.81017 10.5031 2.81017 7.83906C2.81017 5.07812 4.97267 2.91562 7.73204 2.91562L10.9719 2.92343H10.9735C13.7328 2.92343 15.8953 5.08437 15.8969 7.84218C15.8945 9.33437 15.161 10.8453 13.9328 11.8859H13.932Z" fill="#536471"/>
</g>
<defs>
<clipPath id="clip0_4_103">
<rect width="18.75" height="18.75" fill="white"/>
</clipPath>
</defs>
</svg>
