<svg width="20" height="19" viewBox="0 0 20 19" fill="none" xmlns="http://www.w3.org/2000/svg">
<path d="M10 16.9047H9.98906C7.97109 16.8672 2.14844 11.6063 2.14844 6.62344C2.14844 4.22969 4.12109 2.12813 6.36953 2.12813C8.15859 2.12813 9.36172 3.3625 9.99922 4.26094C10.6352 3.36407 11.8383 2.12813 13.6281 2.12813C15.8781 2.12813 17.85 4.22969 17.85 6.62422C17.85 11.6055 12.0266 16.8664 10.0086 16.9031H10V16.9047ZM6.37031 3.30078C4.74531 3.30078 3.32109 4.85391 3.32109 6.625C3.32109 11.1094 8.81641 15.6844 10.0008 15.7328C11.1867 15.6844 16.6805 11.1102 16.6805 6.625C16.6805 4.85391 15.2563 3.30078 13.6313 3.30078C11.6563 3.30078 10.5531 5.59453 10.5438 5.61719C10.3641 6.05625 9.64063 6.05625 9.46016 5.61719C9.44922 5.59375 8.34688 3.30078 6.37109 3.30078H6.37031Z" fill="#536471"/>
</svg>
