<svg width="20" height="19" viewBox="0 0 20 19" fill="none" xmlns="http://www.w3.org/2000/svg">
<g clip-path="url(#clip0_4_106)">
<path d="M19.3828 12.2422C19.1547 12.0133 18.7836 12.0133 18.5547 12.2422L16.8203 13.9766V5.97656C16.8203 4.36093 15.5055 3.04687 13.8906 3.04687H9.3203C8.99686 3.04687 8.73436 3.30937 8.73436 3.63281C8.73436 3.95624 8.99686 4.21874 9.3203 4.21874H13.8906C14.8594 4.21874 15.6484 5.00781 15.6484 5.97656V13.9766L13.9141 12.2422C13.6851 12.0133 13.3141 12.0133 13.0859 12.2422C12.8578 12.4711 12.8562 12.8422 13.0859 13.0703L15.8203 15.8047C15.9336 15.9195 16.0836 15.9766 16.2344 15.9766C16.3851 15.9766 16.5336 15.9203 16.6484 15.8047L19.3828 13.0703C19.6125 12.8422 19.6125 12.4711 19.3828 12.2422V12.2422ZM11.0547 14.8047H6.48436C5.51561 14.8047 4.72655 14.0156 4.72655 13.0469V5.04687L6.46093 6.78124C6.57655 6.89609 6.72655 6.95312 6.87655 6.95312C7.02655 6.95312 7.17655 6.89609 7.29061 6.78124C7.51952 6.55234 7.51952 6.18124 7.29061 5.95312L4.55624 3.21874C4.32733 2.98906 3.95624 2.98906 3.72811 3.21874L0.993738 5.95312C0.76405 6.18124 0.76405 6.55234 0.993738 6.78124C1.22343 7.01015 1.59296 7.01015 1.82186 6.78124L3.55624 5.04687V13.0469C3.55624 14.6625 4.87108 15.9766 6.48593 15.9766H11.0562C11.3797 15.9766 11.6422 15.7141 11.6422 15.3906C11.6422 15.0672 11.3789 14.8047 11.0562 14.8047H11.0547Z" fill="#536471"/>
</g>
<defs>
<clipPath id="clip0_4_106">
<rect width="18.75" height="18.75" fill="white" transform="translate(0.8125)"/>
</clipPath>
</defs>
</svg>
