<svg width="20" height="19" viewBox="0 0 20 19" fill="none" xmlns="http://www.w3.org/2000/svg">
<path d="M14.1328 5.83594L10.2266 1.92969C9.99768 1.70078 9.62659 1.70078 9.39846 1.92969L5.49221 5.83594C5.26252 6.06485 5.26252 6.43594 5.49221 6.66407C5.7219 6.89219 6.09143 6.89375 6.32034 6.66407L9.22659 3.75782V11.7188C9.22659 12.0422 9.48909 12.3047 9.81252 12.3047C10.136 12.3047 10.3985 12.0422 10.3985 11.7188V3.75782L13.3047 6.66407C13.4188 6.77891 13.5688 6.83594 13.7188 6.83594C13.8688 6.83594 14.0188 6.77969 14.1328 6.66407C14.3617 6.43516 14.3617 6.06485 14.1328 5.83594V5.83594Z" fill="#536471"/>
<path d="M15.8344 17.1437H3.79062C2.80312 17.1437 2 16.3406 2 15.3531V10.9375C2 10.6141 2.2625 10.3516 2.58594 10.3516C2.90938 10.3516 3.17188 10.6141 3.17188 10.9375V15.3531C3.17188 15.6945 3.44922 15.9719 3.79062 15.9719H15.8344C16.1758 15.9719 16.4531 15.6945 16.4531 15.3531V10.9375C16.4531 10.6141 16.7156 10.3516 17.0391 10.3516C17.3625 10.3516 17.625 10.6141 17.625 10.9375V15.3531C17.625 16.3406 16.8219 17.1437 15.8344 17.1437V17.1437Z" fill="#536471"/>
</svg>
